<?xml version="1.0"?>
<svg xmlns="http://www.w3.org/2000/svg" viewBox="0 0 50 50">
    <path style="line-height:normal;text-indent:0;text-align:start;text-decoration-line:none;text-decoration-style:solid;text-decoration-color:#000;text-transform:none;block-progression:tb;isolation:auto;mix-blend-mode:normal" d="M 27.960938 2.9804688 A 2.0002 2.0002 0 0 0 26.585938 3.5859375 L 5.171875 25 L 26.585938 46.414062 A 2.0002 2.0002 0 1 0 29.414062 43.585938 L 10.828125 25 L 29.414062 6.4140625 A 2.0002 2.0002 0 0 0 27.960938 2.9804688 z M 40.960938 2.9804688 A 2.0002 2.0002 0 0 0 39.585938 3.5859375 L 18.171875 25 L 39.585938 46.414062 A 2.0002 2.0002 0 1 0 42.414062 43.585938 L 23.828125 25 L 42.414062 6.4140625 A 2.0002 2.0002 0 0 0 40.960938 2.9804688 z" font-weight="400" font-family="sans-serif" white-space="normal" overflow="visible"/>
</svg>
