<svg width="14" height="14" viewBox="0 0 14 14" fill="none" xmlns="http://www.w3.org/2000/svg">
<path d="M7.58342 5.25008H8.94515C9.35184 5.25008 9.5884 5.70977 9.35202 6.0407L7.40695 8.7638C7.20754 9.04298 6.79263 9.04298 6.59321 8.7638L4.64814 6.0407C4.41176 5.70977 4.64832 5.25008 5.05501 5.25008H6.41675V1.66675C6.41675 1.39061 6.64061 1.16675 6.91675 1.16675H7.08342C7.35956 1.16675 7.58342 1.39061 7.58342 1.66675V5.25008ZM2.33341 11.0834H11.6667V7.58341C11.6667 7.26125 11.9279 7.00008 12.2501 7.00008C12.5722 7.00008 12.8334 7.26125 12.8334 7.58341V11.6667C12.8334 11.8215 12.772 11.9698 12.6626 12.0792C12.5532 12.1886 12.4048 12.2501 12.2501 12.2501H1.75008C1.59537 12.2501 1.447 12.1886 1.3376 12.0792C1.22821 11.9698 1.16675 11.8215 1.16675 11.6667V7.58341C1.16675 7.26125 1.42792 7.00008 1.75008 7.00008C2.07225 7.00008 2.33341 7.26125 2.33341 7.58341V11.0834Z" fill="white"/>
</svg>
