<svg width="24" height="24" viewBox="0 0 24 24" fill="none" xmlns="http://www.w3.org/2000/svg">
<circle cx="12" cy="12" r="12" fill="#2B64A9"/>
<path d="M12.5834 10.2501H13.9452C14.3518 10.2501 14.5884 10.7098 14.352 11.0407L12.4069 13.7638C12.2075 14.043 11.7926 14.043 11.5932 13.7638L9.64814 11.0407C9.41176 10.7098 9.64832 10.2501 10.055 10.2501H11.4167V6.66675C11.4167 6.39061 11.6406 6.16675 11.9167 6.16675H12.0834C12.3596 6.16675 12.5834 6.39061 12.5834 6.66675V10.2501ZM7.33341 16.0834H16.6667V12.5834C16.6667 12.2612 16.9279 12.0001 17.2501 12.0001C17.5722 12.0001 17.8334 12.2612 17.8334 12.5834V16.6667C17.8334 16.8215 17.772 16.9698 17.6626 17.0792C17.5532 17.1886 17.4048 17.2501 17.2501 17.2501H6.75008C6.59537 17.2501 6.447 17.1886 6.3376 17.0792C6.22821 16.9698 6.16675 16.8215 6.16675 16.6667V12.5834C6.16675 12.2612 6.42792 12.0001 6.75008 12.0001C7.07225 12.0001 7.33341 12.2612 7.33341 12.5834V16.0834Z" fill="white"/>
</svg>
