<svg width="28" height="28" viewBox="0 0 28 28" fill="none" xmlns="http://www.w3.org/2000/svg">
<path d="M27.9967 13.8552C27.9926 13.4458 27.9719 13.0392 27.9333 12.639C27.8038 11.3048 27.4848 10.0259 27.0068 8.82698C26.9711 8.73773 26.9383 8.64732 26.9003 8.55922C26.2634 7.05456 25.3691 5.68465 24.2745 4.50246C24.2025 4.4253 24.1294 4.34929 24.0562 4.27443C23.8495 4.05964 23.637 3.85004 23.417 3.64907C20.9283 1.38316 17.623 0 13.9998 0C10.3462 0 7.01725 1.40792 4.52158 3.70838C3.93999 4.24448 3.40561 4.82953 2.92076 5.45604C1.09191 7.82157 0.00012207 10.7848 0.00012207 13.9997C0.00012207 21.7199 6.28076 28 14.0004 28C19.4305 28 24.1449 24.8905 26.4655 20.3598C26.9619 19.3913 27.3483 18.3588 27.6086 17.2768C27.6748 17.0021 27.7318 16.7263 27.7813 16.447C27.9224 15.6518 27.9995 14.8341 27.9995 13.9997C28.0001 13.9513 27.9972 13.9035 27.9967 13.8552ZM25.3616 8.25978L25.4428 8.1688C25.5494 8.37553 25.649 8.58571 25.744 8.79877L25.6116 8.79358L25.3616 8.82813V8.25978ZM23.3387 5.81709L23.341 5.19173C23.561 5.42495 23.7729 5.66507 23.9756 5.91383L23.7234 6.28927L22.8418 6.28121L22.7865 6.09752L23.3387 5.81709ZM6.45063 4.26291V4.2393H6.73106L6.75525 4.14314H7.21419V4.34353L7.08232 4.51973H6.45006L6.45063 4.26291ZM6.89863 4.88769C6.89863 4.88769 7.17906 4.8399 7.20325 4.8399C7.22743 4.8399 7.20325 5.11975 7.20325 5.11975L6.57098 5.15949L6.45063 5.01553L6.89863 4.88769ZM26.2536 10.4451H25.2292L24.605 9.98038L23.948 10.0443V10.4451H23.7401L23.5155 10.285L22.3777 9.9965V9.25943L20.9358 9.37172L20.4889 9.61185H19.9165L19.6361 9.58363L18.9411 9.96944V10.6956L17.5205 11.7206L17.6385 12.1582H17.9265L17.851 12.5751L17.6483 12.6494L17.6374 13.7389L18.8651 15.137H19.3994L19.4317 15.0518H20.3922L20.6692 14.7955H21.2139L21.5128 15.095L22.3247 15.179L22.217 16.2587L23.1182 17.8497L22.6437 18.7567L22.676 19.184L23.0497 19.5565V20.5838L23.5403 21.2437V22.0971H23.9641C21.6055 24.993 18.0157 26.8478 13.9993 26.8478C6.91533 26.8483 1.15179 21.0842 1.15179 13.9997C1.15179 12.2163 1.51802 10.5165 2.17736 8.97152V8.57073L2.63687 8.01275C2.79638 7.71159 2.9674 7.41791 3.14994 7.13172L3.17067 7.36494L2.63745 8.01275C2.47218 8.32485 2.31786 8.64387 2.17793 8.97152V9.70283L2.71173 9.95965V10.976L3.22365 11.8495L3.63998 11.9135L3.69353 11.614L3.20234 10.8562L3.10618 10.1197H3.3941L3.5156 10.8775L4.2256 11.9135L4.04249 12.248L4.49394 12.9384L5.61509 13.216V13.0346L6.06367 13.0985L6.02106 13.4187L6.37347 13.4832L6.91763 13.6318L7.68637 14.5076L8.66817 14.5819L8.76434 15.3829L8.09234 15.8528L8.06067 16.5679L7.9645 17.0056L8.93651 18.2223L9.0108 18.6392C9.0108 18.6392 9.36321 18.7348 9.40639 18.7348C9.44901 18.7348 10.1964 19.3009 10.1964 19.3009V21.5L10.4631 21.5748L10.2817 22.5894L10.7302 23.1877L10.6473 24.1932L11.2399 25.2348L12.0005 25.8994L12.7652 25.9132L12.8401 25.6673L12.2781 25.194L12.3103 24.959L12.4111 24.6711L12.4324 24.3774L12.0524 24.3659L11.8606 24.1252L12.1762 23.8217L12.2188 23.5926L11.8664 23.4918L11.8871 23.2787L12.3892 23.2027L13.1528 22.8359L13.409 22.366L14.21 21.341L14.0281 20.5395L14.2739 20.1128L15.0104 20.1352L15.5062 19.7425L15.6663 18.1958L16.2162 17.4973L16.3124 17.0488L15.8108 16.8881L15.4797 16.3451L14.3482 16.3336L13.4511 15.9915L13.4085 15.3518L13.109 14.8283L12.2977 14.8162L11.8289 14.0803L11.4126 13.8771L11.3913 14.1016L10.6335 14.1465L10.3559 13.7602L9.56533 13.5995L8.91406 14.3521L7.88907 14.1782L7.81479 13.0231L7.06678 12.8953L7.36679 12.3286L7.28099 12.0033L6.29804 12.6603L5.67959 12.5849L5.45904 12.1018L5.59379 11.6037L5.93468 10.9754L6.71955 10.5781L8.23515 10.5775L8.23112 11.0399L8.77586 11.2933L8.73267 10.5032L9.12539 10.1082L9.91774 9.58766L9.97187 9.22143L10.7619 8.39914L11.6021 7.93386L11.5278 7.87282L12.0967 7.3373L12.3052 7.39258L12.4007 7.51235L12.6167 7.2728L12.6697 7.24919L12.433 7.21579L12.1929 7.13575V6.90542L12.3201 6.80119H12.6006L12.729 6.85763L12.8401 7.0822L12.976 7.06147V7.04189L13.0152 7.05514L13.409 6.99467L13.4649 6.80234L13.6895 6.85878V7.06723L13.481 7.21061H13.4816L13.5121 7.43922L14.2256 7.65919C14.2256 7.65919 14.2261 7.66207 14.2273 7.66783L14.3914 7.65401L14.4023 7.34478L13.8369 7.08738L13.8046 6.93882L14.2739 6.77874L14.2947 6.32958L13.8041 6.03072L13.7718 5.2735L13.0992 5.60403H12.8539L12.9184 5.02762L12.0028 4.81168L11.6239 5.09787V5.97084L10.9427 6.18678L10.6698 6.7557L10.3738 6.8035V6.07564L9.73347 5.98696L9.41331 5.77851L9.28432 5.3069L10.4297 4.63663L10.9899 4.46618L11.0464 4.84278L11.3585 4.82665L11.3827 4.6372L11.7092 4.59056L11.7149 4.52434L11.5744 4.46618L11.5422 4.26579L11.9435 4.23181L12.186 3.9796L12.1992 3.96117L12.2021 3.96232L12.2758 3.88631L13.1194 3.77978L13.4925 4.09649L12.5142 4.61762L13.7591 4.9113L13.9204 4.49497H14.4645L14.6569 4.1322L14.2722 4.03603V3.57709L13.0658 3.04271L12.2332 3.13888L11.7633 3.38476L11.7955 3.98248L11.3043 3.90762L11.2289 3.57709L11.6994 3.14982L10.8454 3.10721L10.6001 3.18149L10.4936 3.46941L10.8137 3.52354L10.7498 3.8437L10.2057 3.87595L10.1204 4.08901L9.33096 4.11089C9.33096 4.11089 9.30908 3.66289 9.27741 3.66289C9.24574 3.66289 9.89643 3.65195 9.89643 3.65195L10.3669 3.19243L10.1101 3.06402L9.7686 3.3957L9.20197 3.36346L8.8605 2.89357H8.13437L7.37658 3.45962H8.07103L8.13437 3.66289L7.95414 3.83046L8.72288 3.85176L8.84035 4.12932L7.97487 4.09707L7.93283 3.88343L7.38867 3.76596L7.10017 3.60588L6.45236 3.61106C8.57316 2.0661 11.1811 1.15167 13.9998 1.15167C17.2487 1.15167 20.2171 2.36611 22.4819 4.36138L22.3293 4.63432L21.7368 4.86639L21.4868 5.1376L21.5444 5.45374L21.8502 5.49635L22.0345 5.95702L22.5619 5.74453L22.6489 6.36068H22.49L22.0569 6.29676L21.5767 6.37738L21.112 7.03383L20.4475 7.13806L20.3513 7.70698L20.6317 7.7732L20.5505 8.13886L19.8906 8.00642L19.2854 8.13886L19.157 8.47572L19.2618 9.18285L19.6171 9.34927L20.2131 9.34581L20.6156 9.30953L20.7383 8.98937L21.3671 8.17226L21.7811 8.2569L22.1888 7.88837L22.2648 8.17629L23.2679 8.85289L23.1453 9.01758L22.6932 8.9934L22.8671 9.23986L23.1453 9.30089L23.4712 9.165L23.4643 8.77228L23.6088 8.69972L23.4925 8.57649L22.8234 8.20335L22.6472 7.70756H23.2034L23.3813 7.88376L23.8604 8.29664L23.8806 8.79589L24.377 9.3245L24.5618 8.6001L24.9056 8.41238L24.9701 9.00491L25.3058 9.37345L25.9755 9.36193C26.1051 9.69534 26.2214 10.0345 26.3233 10.3806L26.2536 10.4451ZM7.63628 6.36068L7.97257 6.2006L8.27661 6.27315L8.1718 6.68142L7.84358 6.78565L7.63628 6.36068ZM9.42079 7.32175V7.58606H8.65263L8.36471 7.50602L8.43669 7.32175L8.8058 7.16915H9.31023V7.32175H9.42079ZM9.77435 7.69028V7.94653L9.58202 8.07033L9.34248 8.11467C9.34248 8.11467 9.34248 7.73059 9.34248 7.69028H9.77435ZM9.55784 7.58606V7.28144L9.82215 7.52214L9.55784 7.58606ZM9.67819 8.2022V8.45154L9.4945 8.6358H9.08623L9.15015 8.35595L9.34305 8.33925L9.38279 8.24308L9.67819 8.2022ZM8.66126 7.69028H9.08566L8.54149 8.45096L8.31691 8.33061L8.36528 8.01045L8.66126 7.69028ZM10.3991 8.11467V8.36343H9.99087L9.87916 8.2022V7.97071H9.9114L10.3991 8.11467ZM10.022 7.77263L10.1383 7.65055L10.3346 7.77263L10.1774 7.90219L10.022 7.77263ZM26.4621 11.0935L26.5024 11.0463C26.5191 11.1188 26.5369 11.1914 26.553 11.2651L26.4621 11.0935Z" fill="black"/>
</svg>
