<svg width="22" height="22" viewBox="0 0 22 22" fill="none" xmlns="http://www.w3.org/2000/svg">
<path d="M4.58341 20.1666C4.3403 20.1666 4.10714 20.07 3.93523 19.8981C3.76333 19.7262 3.66675 19.493 3.66675 19.2499V2.74992C3.66675 2.5068 3.76333 2.27365 3.93523 2.10174C4.10714 1.92983 4.3403 1.83325 4.58341 1.83325H17.4167C17.6599 1.83325 17.893 1.92983 18.0649 2.10174C18.2368 2.27365 18.3334 2.5068 18.3334 2.74992V5.49992H16.5001V3.66659H5.50008V18.3333H16.5001V16.4999H18.3334V19.2499C18.3334 19.493 18.2368 19.7262 18.0649 19.8981C17.893 20.07 17.6599 20.1666 17.4167 20.1666H4.58341ZM16.5001 14.6666V11.9166H10.0834V10.0833H16.5001V7.33325L21.0834 10.9999L16.5001 14.6666Z" fill="white"/>
</svg>
