<svg width="19" height="19" viewBox="0 0 19 19" fill="none" xmlns="http://www.w3.org/2000/svg">
<path d="M18.0455 2.98779L9.49999 11.4962L0.954485 2.98779C0.609962 3.15263 0.332198 3.4304 0.167358 3.77492L8.31932 11.8898C8.94881 12.5193 10.0518 12.5193 10.6801 11.8898L18.8326 3.77485C18.6678 3.43036 18.39 3.15263 18.0455 2.98779Z" fill="white"/>
<path d="M2.36133 2.82031L9.49995 9.92182L16.6386 2.82031H2.36133Z" fill="white"/>
<path d="M0 5.18164V14.5096C0 15.2344 0.466762 15.8465 1.11328 16.077V6.29492L0 5.18164Z" fill="white"/>
<path d="M15.6602 8.52148L11.5049 12.6767C10.9804 13.2018 10.2447 13.491 9.5 13.491C8.75529 13.491 8.05674 13.2018 7.53164 12.6767L3.33984 8.52167L2.22656 7.40831V16.1796C7.54025 16.1796 11.4572 16.1796 16.7734 16.1796V7.4082L15.6602 8.52148Z" fill="white"/>
<path d="M17.8867 6.29492V16.0771C18.5332 15.8465 19 15.2345 19 14.5097V5.18164L17.8867 6.29492Z" fill="white"/>
</svg>
