<svg width="30" height="30" viewBox="0 0 30 30" fill="none" xmlns="http://www.w3.org/2000/svg">
<g clip-path="url(#clip0)">
<path d="M25.3742 2.23761L29.9246 2.23761L5.33715 26.8251L0.849006 26.7628L25.3742 2.23761Z" fill="#910F27"/>
<path d="M7.35006 3.09999C8.14535 3.09011 8.92554 3.31755 9.59095 3.75325C10.2563 4.18894 10.7768 4.81312 11.0857 5.54603C11.3946 6.27894 11.478 7.08731 11.3253 7.86786C11.1726 8.64841 10.7906 9.36571 10.2282 9.92811C9.66577 10.4905 8.94847 10.8725 8.16792 11.0252C7.38737 11.178 6.579 11.0946 5.84609 10.7856C5.11318 10.4767 4.48901 9.95629 4.05331 9.29088C3.61761 8.62548 3.39018 7.84529 3.40006 7.05C3.40006 6.00239 3.81622 4.99769 4.55699 4.25692C5.29775 3.51615 6.30245 3.09999 7.35006 3.09999ZM7.35006 0.549994C6.05038 0.54011 4.77715 0.917107 3.69238 1.63301C2.60761 2.34892 1.76035 3.37136 1.25841 4.57024C0.756471 5.76911 0.622549 7.09022 0.873686 8.36543C1.12482 9.64065 1.74966 10.8123 2.6687 11.7314C3.58773 12.6504 4.7594 13.2752 6.03462 13.5264C7.30984 13.7775 8.63094 13.6436 9.82981 13.1416C11.0287 12.6397 12.0511 11.7924 12.767 10.7077C13.4829 9.6229 13.8599 8.34967 13.8501 7.05C13.8501 5.32609 13.1652 3.67279 11.9463 2.4538C10.7273 1.23481 9.07396 0.549994 7.35006 0.549994Z" fill="#910F27" stroke="#910F27" stroke-width="0.5"/>
<path d="M22.6999 18.4501C23.4952 18.4402 24.2754 18.6676 24.9408 19.1033C25.6062 19.539 26.1266 20.1632 26.4355 20.8961C26.7445 21.629 26.8279 22.4374 26.6752 23.218C26.5224 23.9985 26.1404 24.7158 25.578 25.2782C25.0156 25.8406 24.2983 26.2226 23.5178 26.3753C22.7372 26.5281 21.9289 26.4447 21.1959 26.1357C20.463 25.8268 19.8389 25.3064 19.4032 24.641C18.9675 23.9756 18.74 23.1954 18.7499 22.4001C18.7499 21.3525 19.1661 20.3478 19.9068 19.607C20.6476 18.8663 21.6523 18.4501 22.6999 18.4501ZM22.6999 15.9001C21.4002 15.8902 20.127 16.2672 19.0422 16.9831C17.9575 17.699 17.1102 18.7215 16.6083 19.9203C16.1063 21.1192 15.9724 22.4403 16.2235 23.7155C16.4747 24.9907 17.0995 26.1624 18.0186 27.0815C18.9376 28.0005 20.1093 28.6253 21.3845 28.8765C22.6597 29.1276 23.9808 28.9937 25.1797 28.4917C26.3785 27.9898 27.401 27.1425 28.1169 26.0578C28.8328 24.973 29.2098 23.6998 29.1999 22.4001C29.1999 20.6762 28.5151 19.0229 27.2961 17.8039C26.0771 16.5849 24.4238 15.9001 22.6999 15.9001Z" fill="#910F27" stroke="#910F27" stroke-width="0.5"/>
</g>
<defs>
<clipPath id="clip0">
<rect width="30" height="30" fill="white"/>
</clipPath>
</defs>
</svg>
