<svg width="18" height="17" viewBox="0 0 18 17" fill="none" xmlns="http://www.w3.org/2000/svg">
<g clip-path="url(#clip0)">
<path d="M17.3606 2.86241C16.9739 2.8311 16.6319 3.08415 16.5966 3.42759L16.5034 4.33519C14.9228 2.13072 12.1791 0.657227 8.99996 0.657227C5.57992 0.657227 2.56594 2.39074 1.06976 4.99254C0.893138 5.29967 1.03032 5.6758 1.37615 5.83266C1.72205 5.98952 2.14551 5.86773 2.32213 5.56056C3.58836 3.35866 6.1311 1.90611 8.99996 1.90611C11.6148 1.90611 13.9745 3.11537 15.3264 5.00984L14.3239 4.37394C14.0079 4.17352 13.5687 4.23853 13.3431 4.51915C13.1174 4.79981 13.1906 5.18977 13.5066 5.39022L16.5467 7.31852C16.9923 7.60062 17.6068 7.34238 17.6556 6.86708L17.997 3.54099C18.0323 3.19752 17.7474 2.89373 17.3606 2.86241Z" fill="#910F27"/>
<path d="M16.6239 11.4675C16.278 11.3106 15.8545 11.4324 15.6779 11.7396C14.4117 13.9415 11.8689 15.394 9.00008 15.394C6.38527 15.394 4.02551 14.1848 2.67361 12.2903L3.67616 12.9262C3.99218 13.1266 4.43128 13.0616 4.65699 12.781C4.88265 12.5003 4.80946 12.1104 4.49347 11.9099L1.45334 9.98161C1.01322 9.70236 0.393693 9.95286 0.344474 10.4331L0.00307195 13.7592C-0.0321898 14.1026 0.252752 14.4064 0.639435 14.4377C1.02665 14.469 1.36826 14.2156 1.40349 13.8725L1.49665 12.9649C3.07721 15.1694 5.82094 16.6429 9.00008 16.6429C12.4201 16.6429 15.4341 14.9094 16.9303 12.3076C17.1069 12.0005 16.9697 11.6243 16.6239 11.4675Z" fill="#910F27"/>
</g>
<defs>
<clipPath id="clip0">
<rect width="18" height="15.9857" fill="white" transform="translate(0 0.657227)"/>
</clipPath>
</defs>
</svg>
