<svg width="16" height="16" viewBox="0 0 16 16" fill="none" xmlns="http://www.w3.org/2000/svg">
<path d="M16 15.293L10.5774 9.87037C11.463 8.82458 12 7.47462 12 6.00001C12 2.6914 9.30858 0 6.00001 0C2.69143 0 0 2.6914 0 6.00001C0 9.30861 2.6914 12 6.00001 12C7.47462 12 8.82458 11.463 9.87037 10.5774L15.293 16L16 15.293ZM6.00001 11C3.24317 11 1.00001 8.75685 1.00001 6.00001C1.00001 3.24317 3.24317 1.00001 6.00001 1.00001C8.75685 1.00001 11 3.24317 11 6.00001C11 8.75685 8.75685 11 6.00001 11Z" fill="white"/>
</svg>
