<svg width="20" height="20" viewBox="0 0 20 20" fill="none" xmlns="http://www.w3.org/2000/svg">
<path d="M17.0653 10.7019L17.0363 10.9774L17.2545 11.1481L19.09 12.5833C19.0904 12.5836 19.0908 12.584 19.0912 12.5843C19.2372 12.7011 19.2838 12.9091 19.1877 13.0892L17.2712 16.4083L17.271 16.4082L17.2652 16.4189C17.2043 16.5305 17.0768 16.61 16.9333 16.61C16.8847 16.61 16.8375 16.6013 16.7899 16.5831L14.618 15.711L14.3642 15.6091L14.1415 15.7678C13.73 16.061 13.3297 16.2933 12.9256 16.4761L12.6756 16.5892L12.6367 16.8607L12.3059 19.1691L12.3058 19.1691L12.3046 19.1785C12.2836 19.3479 12.1255 19.5 11.9183 19.5H8.08501C7.88031 19.5 7.72025 19.3512 7.69792 19.1704L7.69801 19.1704L7.69662 19.1607L7.36662 16.8607L7.32761 16.5888L7.07723 16.4759C6.65817 16.2869 6.25133 16.0507 5.86241 15.7703L5.63915 15.6093L5.38373 15.7119L3.22256 16.5795C3.00371 16.6571 2.82035 16.5674 2.73346 16.4088L2.73357 16.4088L2.7279 16.399L0.819782 13.0976C0.717043 12.9049 0.769088 12.6981 0.909593 12.586C0.909924 12.5857 0.910256 12.5855 0.910588 12.5852L2.74794 11.149L2.96581 10.9787L2.93735 10.7036C2.90955 10.4348 2.89669 10.2083 2.89669 10C2.89669 9.79173 2.90952 9.5652 2.93733 9.29753L2.96592 9.02239L2.74801 8.85198L0.91221 7.41647C0.911875 7.41621 0.911542 7.41594 0.911209 7.41567C0.757068 7.29273 0.718129 7.07307 0.815333 6.90878L0.815355 6.90879L0.8179 6.90439L2.73204 3.59271L2.73218 3.59279L2.73821 3.58171C2.81696 3.43718 3.03471 3.34935 3.21407 3.41716L5.38538 4.28899L5.63903 4.39084L5.86169 4.2323C6.27261 3.93973 6.67357 3.70679 7.07702 3.52507L7.32765 3.41219L7.36664 3.14009L7.69746 0.830908L7.69754 0.83092L7.6987 0.821573C7.71981 0.651467 7.87767 0.5 8.08419 0.5H11.9175C12.1222 0.5 12.2825 0.649686 12.3046 0.828244L12.3045 0.828255L12.3059 0.837667L12.6359 3.13849L12.675 3.41086L12.926 3.5236C13.3445 3.71159 13.7511 3.94765 14.1408 4.22881L14.3641 4.38991L14.6196 4.28733L16.7811 3.41959C16.997 3.34264 17.1834 3.43226 17.2697 3.58992L17.2695 3.58999L17.2754 3.6002L19.1834 6.90136C19.2863 7.09485 19.2335 7.30145 19.0934 7.41286C19.0931 7.41309 19.0928 7.41333 19.0925 7.41356L17.2546 8.85025L17.0353 9.02165L17.0654 9.29831C17.0882 9.50719 17.1058 9.74764 17.1058 9.99918C17.1058 10.2499 17.0875 10.4903 17.0653 10.7019ZM6.16751 10C6.16751 12.1145 7.88637 13.8333 10.0008 13.8333C12.1153 13.8333 13.8341 12.1145 13.8341 10C13.8341 7.88554 12.1153 6.16668 10.0008 6.16668C7.88637 6.16668 6.16751 7.88554 6.16751 10Z" stroke="white"/>
</svg>
