<svg width="56" height="56" viewBox="0 0 56 56" fill="none" xmlns="http://www.w3.org/2000/svg">
<circle cx="28" cy="28" r="28" fill="#018F99"/>
<path d="M34.0542 31.6899C33.1865 31.1875 32.3029 31.5002 31.9376 31.9937L31.1735 32.9826C30.7853 33.485 30.0599 33.4183 30.0599 33.4183C24.7658 32.0183 23.3501 26.4784 23.3501 26.4784C23.3501 26.4784 23.2851 25.7283 23.7699 25.3261L24.7254 24.5357C25.2032 24.1563 25.5053 23.2429 25.0188 22.3453C23.719 19.9969 22.846 19.1872 22.4016 18.5654C21.9344 17.9805 21.2318 17.8487 20.5011 18.2439H20.4853C18.9659 19.1327 17.3025 20.7961 17.8347 22.5087C18.7428 24.3144 20.4115 30.0704 25.7301 34.4195C28.2296 36.4763 32.1853 38.5841 33.8645 39.0706L33.8803 39.0952C35.5349 39.6468 37.1438 37.9184 38.0027 36.3534V36.3411C38.3839 35.584 38.2574 34.8674 37.7006 34.3984C36.7135 33.4358 35.224 32.3731 34.0542 31.6899Z" fill="white"/>
</svg>
