<svg width="56" height="56" viewBox="0 0 56 56" fill="none" xmlns="http://www.w3.org/2000/svg">
<circle cx="28" cy="28" r="28" fill="#8E56B9"/>
<path d="M28.2595 16.8003C27.5833 16.8003 27.5833 17.8542 28.2595 17.863C33.5061 17.9034 37.8271 21.5604 37.8745 28.2684C37.8745 28.9763 38.9109 28.9675 38.9021 28.2596H38.9003C38.8441 21.0317 34.1262 16.8407 28.2595 16.8003Z" fill="white"/>
<path d="M35.1607 27.1564C35.1449 27.8555 36.1795 27.8888 36.1883 27.181C36.2744 23.1955 33.817 19.9126 29.1992 19.5666C28.523 19.5174 28.4527 20.5801 29.1272 20.6293C33.132 20.9331 35.2415 23.6662 35.1607 27.1564Z" fill="white"/>
<path d="M34.0542 31.6899C33.1865 31.1875 32.3029 31.5002 31.9376 31.9937L31.1735 32.9827C30.7853 33.485 30.0599 33.4183 30.0599 33.4183C24.7658 32.0183 23.3501 26.4784 23.3501 26.4784C23.3501 26.4784 23.2851 25.7283 23.7699 25.3261L24.7254 24.5357C25.2032 24.1563 25.5053 23.2429 25.0188 22.3453C23.719 19.9969 22.846 19.1872 22.4016 18.5654C21.9344 17.9805 21.2318 17.8487 20.5011 18.2439H20.4853C18.9659 19.1327 17.3025 20.7961 17.8347 22.5087C18.7428 24.3144 20.4115 30.0704 25.7301 34.4195C28.2296 36.4763 32.1853 38.5841 33.8645 39.0706L33.8803 39.0952C35.5349 39.6468 37.1438 37.9184 38.0027 36.3534V36.3411C38.3839 35.584 38.2574 34.8674 37.7006 34.3984C36.7135 33.4358 35.224 32.3731 34.0542 31.6899Z" stroke="white"/>
<path d="M29.9229 23.4871C31.6109 23.5855 32.4295 24.4673 32.5173 26.2782C32.5489 26.9861 33.5764 26.9369 33.5448 26.229C33.4324 23.8648 32.1994 22.5474 29.9792 22.4245C29.3029 22.3841 29.2397 23.4467 29.9229 23.4871Z" fill="white"/>
</svg>
