<svg width="19" height="19" viewBox="0 0 19 19" fill="none" xmlns="http://www.w3.org/2000/svg">
<g clip-path="url(#clip0)">
<path d="M8.63635 0.430869C9.83203 0.426539 11.0151 0.677179 12.1075 1.16628C13.1812 1.59488 14.1555 2.24161 14.9697 3.06609C15.7819 3.9039 16.4415 4.87885 16.9184 5.94645L8.63635 0.430869ZM8.63635 0.430869C8.06311 0.431257 7.49154 0.492886 6.93123 0.614722L8.63635 0.430869ZM16.9706 11.0303L16.9497 11.1922L17.0283 11.3352C17.4214 12.0501 17.6305 12.8527 17.6364 13.67C17.6359 14.9519 17.1297 16.1805 16.2299 17.0859C15.3303 17.9913 14.1109 18.4995 12.84 18.5C12.0083 18.494 11.1905 18.2834 10.458 17.8863L10.3282 17.816L10.1811 17.8274L8.61817 17.9484C7.50171 17.9419 6.39607 17.7265 5.35775 17.3128C4.35 16.8729 3.434 16.2448 2.65832 15.4614L2.65659 15.4597C1.8859 14.6889 1.28118 13.7664 0.880366 12.7495L0.876628 12.74L0.872506 12.7307C0.415475 11.6969 0.180947 10.5773 0.184413 9.44559C0.194526 8.95401 0.233604 8.46346 0.301442 7.97654L0.32435 7.81211L0.244359 7.66664C-0.148679 6.95183 -0.357765 6.14918 -0.363647 5.3319C-0.363198 4.05005 0.143027 2.82142 1.04279 1.91594C1.94286 1.01016 3.16293 0.50188 4.43443 0.50188V0.502074L4.44836 0.501686C5.23003 0.479899 6.00335 0.669654 6.68764 1.05138L6.85274 1.14347L7.03746 1.10331C7.56299 0.989033 8.09907 0.931232 8.63669 0.930871L8.63816 0.930866C9.76274 0.926794 10.8755 1.16252 11.9032 1.62263L11.9126 1.62683L11.9221 1.63065C12.931 2.03336 13.8467 2.64098 14.6123 3.41579C15.3805 4.20851 16.0049 5.13055 16.4573 6.14021C16.8697 7.18956 17.0837 8.30728 17.0883 9.43587C17.0782 9.96912 17.0389 10.5014 16.9706 11.0303ZM9.48375 11.0877L9.49448 11.0905L9.50531 11.0928C9.94266 11.1871 10.0797 11.259 10.1321 11.3094L10.1325 11.3097C10.1494 11.3259 10.2069 11.3811 10.2069 11.7072C10.2069 12.0707 9.80662 12.678 8.69725 12.678C8.12405 12.678 7.75053 12.5688 7.48772 12.4297C7.22359 12.2898 7.03515 12.1011 6.85297 11.8797C6.81199 11.8299 6.76669 11.7718 6.71793 11.7092C6.57791 11.5295 6.4094 11.3131 6.23286 11.153C5.95502 10.9009 5.60361 10.7207 5.11954 10.717C4.92325 10.7068 4.7269 10.7361 4.54205 10.8032C4.35211 10.8722 4.17847 10.9795 4.03178 11.1185C3.8851 11.2574 3.76847 11.425 3.68895 11.6107C3.6095 11.7962 3.56872 11.9961 3.56905 12.1979C3.56938 13.8431 5.36364 15.4552 8.69725 15.4552C10.3204 15.4552 11.568 14.8525 12.411 14.0641C13.2354 13.2931 13.7037 12.3112 13.7037 11.5233C13.7037 10.8279 13.5301 10.0683 13.0126 9.40127C12.4941 8.73306 11.6695 8.20814 10.4604 7.91216L10.4503 7.9097L10.4401 7.90765L8.31607 7.48014C7.92916 7.38998 7.56924 7.28111 7.31313 7.13127C7.0615 6.98404 7.00494 6.85873 7.00494 6.74315C7.00494 6.54364 7.08921 6.36772 7.28098 6.22651C7.48393 6.07706 7.827 5.95618 8.33187 5.95618C8.84883 5.95618 9.19589 6.04809 9.4446 6.16631C9.69337 6.28455 9.87426 6.44332 10.0454 6.62568C10.1064 6.69071 10.1598 6.75145 10.2172 6.81684C10.2461 6.84971 10.276 6.88375 10.3084 6.92011C10.3982 7.02077 10.5015 7.13213 10.6192 7.23261C10.8652 7.44258 11.1731 7.60332 11.5907 7.6106C11.7901 7.63064 11.9916 7.61126 12.1838 7.55349C12.3857 7.49279 12.5728 7.39106 12.7336 7.25478C12.8944 7.1185 13.0255 6.95061 13.1188 6.76162C13.2122 6.57263 13.2659 6.36651 13.2767 6.156L13.2774 6.14316V6.13031C13.2774 5.13337 12.5607 4.35646 11.6945 3.85834C10.8117 3.3507 9.65847 3.05637 8.51456 3.05637C7.38846 3.05637 6.18933 3.29742 5.25433 3.89306C4.29563 4.5038 3.62994 5.48261 3.62994 6.86572C3.62994 7.52188 3.7261 8.25936 4.19614 8.91215C4.6686 9.56828 5.46091 10.0603 6.6879 10.3537L9.48375 11.0877Z" fill="white" stroke="white"/>
</g>
<defs>
<clipPath id="clip0">
<rect width="19" height="19" fill="white"/>
</clipPath>
</defs>
</svg>
