<svg width="36" height="36" viewBox="0 0 36 36" fill="none" xmlns="http://www.w3.org/2000/svg">
<path d="M28.4529 18.0001C28.4534 20.2473 27.6933 22.4286 26.2963 24.1888C24.8993 25.9491 22.9476 27.1846 20.759 27.6944C20.0174 27.8696 19.258 27.9577 18.496 27.957C18.345 27.96 18.1938 27.9539 18.0435 27.9388V8.06129C18.1938 8.04626 18.345 8.04023 18.496 8.04323C19.258 8.04246 20.0174 8.13054 20.759 8.30571C22.9476 8.8155 24.8993 10.0511 26.2963 11.8113C27.6933 13.5716 28.4534 15.7528 28.4529 18.0001Z" fill="#A8A8A8"/>
<path d="M19.4835 0H18.0435V5.76H19.4835V0Z" fill="#A8A8A8"/>
<path d="M19.4835 30.24H18.0435V36H19.4835V30.24Z" fill="#A8A8A8"/>
<path d="M27.2074 26.1458L26.1892 27.1641L30.2621 31.237L31.2804 30.2188L27.2074 26.1458Z" fill="#A8A8A8"/>
<path d="M30.2834 17.28V18.72H35.6943V17.28H30.2834Z" fill="#A8A8A8"/>
<path d="M26.1893 8.83601L27.2075 9.85425L31.2805 5.78131L30.2622 4.76308L26.1893 8.83601Z" fill="#A8A8A8"/>
<path d="M16.9739 0H15.5339V7.02576L11.2139 2.70504L10.1951 3.72384L15.5339 9.06192V16.753L8.87391 12.9074L6.91983 5.61456L5.52879 5.98752L7.10991 11.8894L1.02591 8.37648L0.305908 9.62352L6.38991 13.1364L0.488068 14.7175L0.861028 16.1086L8.15391 14.1545L14.8139 18L8.15391 21.8455L0.861028 19.8914L0.488068 21.2825L6.38991 22.8636L0.305908 26.3765L1.02591 27.6235L7.10991 24.1106L5.52879 30.0125L6.91983 30.3854L8.87391 23.0926L15.5339 19.247V26.9381L10.1951 32.2762L11.2139 33.295L15.5339 28.9742V36H16.9739V0Z" fill="#A8A8A8"/>
</svg>
