<svg width="36" height="36" viewBox="0 0 36 36" fill="none" xmlns="http://www.w3.org/2000/svg">
<path d="M34.4858 21.2825L34.1128 19.8914L26.82 21.8455L21.407 18.72H28.08V17.28H21.407L26.82 14.1545L34.1128 16.1086L34.4858 14.7175L28.584 13.1364L34.6687 9.62352L33.9487 8.37648L27.864 11.8894L29.4451 5.98752L28.054 5.61456L26.1 12.9074L20.687 16.033L24.0235 10.2542L22.7764 9.53424L19.44 15.313V9.06192L24.7788 3.72384L23.7607 2.70504L19.44 7.02576V0H18V7.02576L13.6792 2.70504L12.6612 3.72384L18 9.06192V15.313L14.6635 9.53424L13.4164 10.2542L16.7529 16.033L11.34 12.9074L9.38588 5.61456L7.99484 5.98752L9.57596 11.8894L3.49124 8.37648L2.77124 9.62352L8.85596 13.1364L2.95412 14.7175L3.32708 16.1086L10.62 14.1545L16.0329 17.28H9.35996V18.72H16.0329L10.62 21.8455L3.32708 19.8914L2.95412 21.2825L8.85596 22.8636L2.77124 26.3765L3.49124 27.6235L9.57596 24.1106L7.99484 30.0125L9.38588 30.3854L11.34 23.0926L16.7529 19.967L13.4164 25.7458L14.6635 26.4658L18 20.687V26.9381L12.6612 32.2762L13.6792 33.295L18 28.9742V36H19.44V28.9742L23.7607 33.295L24.7788 32.2762L19.44 26.9381V20.687L22.7764 26.4658L24.0235 25.7458L20.687 19.967L26.1 23.0926L28.054 30.3854L29.4451 30.0125L27.864 24.1106L33.9487 27.6235L34.6687 26.3765L28.584 22.8636L34.4858 21.2825Z" fill="#49C7F9"/>
</svg>
