<svg width="18" height="18" viewBox="0 0 18 18" fill="none" xmlns="http://www.w3.org/2000/svg">
<path d="M17.0832 6.61339L17.083 6.61337L11.8869 6.12111L11.5859 6.0926L11.4714 5.81275L9.41817 0.796681C9.41813 0.796591 9.4181 0.796501 9.41806 0.796412C9.33949 0.605689 9.17089 0.5 9.00001 0.5C8.82879 0.5 8.66064 0.605935 8.5831 0.795648L8.583 0.795881L6.52949 5.81275L6.41494 6.0926L6.1139 6.12111L0.917795 6.6133C0.917691 6.61331 0.917588 6.61332 0.917484 6.61333C0.74749 6.62983 0.586728 6.75235 0.524311 6.95046C0.462127 7.15074 0.522654 7.36437 0.663702 7.49348C0.663714 7.49349 0.663726 7.4935 0.663738 7.49351L4.59151 11.0875L4.8037 11.2816L4.74255 11.5626L3.58455 16.8848C3.58454 16.8849 3.58452 16.8849 3.58451 16.885C3.53948 17.0933 3.61947 17.2979 3.769 17.4107L3.76999 17.4114C3.84954 17.4717 3.93977 17.5 4.0289 17.5C4.10529 17.5 4.18305 17.479 4.25462 17.4343L4.25477 17.4342L8.73533 14.6386L9.00004 14.4734L9.26472 14.6386L13.7443 17.4341C13.7444 17.4342 13.7444 17.4342 13.7445 17.4342C13.8966 17.529 14.0847 17.5213 14.2306 17.411L14.231 17.4107C14.3805 17.2979 14.4605 17.0935 14.4156 16.8853L17.0832 6.61339ZM17.0832 6.61339C17.2529 6.62941 17.4137 6.75172 17.4755 6.94962C17.538 7.15096 17.4775 7.36416 17.3363 7.49348C17.3363 7.49352 17.3362 7.49356 17.3362 7.49359L13.4085 11.0875L13.1963 11.2816L13.2575 11.5626L14.4155 16.8848L17.0832 6.61339Z" stroke="black"/>
</svg>
