<svg width="28" height="28" viewBox="0 0 28 28" fill="none" xmlns="http://www.w3.org/2000/svg">
<path d="M27.9268 10.5796C27.7424 9.98798 27.2395 9.56911 26.6469 9.51316L18.5642 8.74742L15.3698 0.943402C15.134 0.370049 14.5973 0 14 0C13.4027 0 12.8659 0.370049 12.6315 0.943402L9.43719 8.74742L1.35313 9.51316C0.760528 9.57022 0.258719 9.98909 0.0732909 10.5796C-0.111069 11.1712 0.0591915 11.8202 0.50738 12.2303L6.61731 17.821L4.8158 26.1007C4.68399 26.7095 4.91044 27.339 5.39452 27.7042C5.65471 27.9015 5.96041 28 6.26718 28C6.5308 28 6.79462 27.9269 7.03025 27.7798L14 23.431L20.9685 27.7798C21.4797 28.0985 22.1225 28.0693 22.6056 27.7042C23.0896 27.339 23.3161 26.7095 23.1843 26.1007L21.3828 17.821L27.4927 12.2303C27.9407 11.8202 28.1111 11.1726 27.9268 10.5796Z" fill="#1770D5"/>
</svg>
