<svg width="36" height="36" viewBox="0 0 36 36" fill="none" xmlns="http://www.w3.org/2000/svg">
<path d="M18 0L22.3049 7.60608L30.7282 5.27184L28.3939 13.6951L36 18L28.3939 22.3049L30.7282 30.7282L22.3049 28.3939L18 36L13.6951 28.3939L5.27184 30.7282L7.60608 22.3049L0 18L7.60608 13.6951L5.27184 5.27184L13.6951 7.60608L18 0Z" fill="#49C7F9"/>
<path d="M18.0001 27.2001C23.0811 27.2001 27.2001 23.0811 27.2001 18.0001C27.2001 12.919 23.0811 8.80005 18.0001 8.80005C12.919 8.80005 8.80005 12.919 8.80005 18.0001C8.80005 23.0811 12.919 27.2001 18.0001 27.2001Z" fill="#E3E3E3"/>
</svg>
