<svg width="15" height="14" viewBox="0 0 15 14" fill="none" xmlns="http://www.w3.org/2000/svg">
<path d="M4.86327 8.78916H12.8028C12.9994 8.78916 13.1719 8.65915 13.2251 8.47032L14.983 2.31788C15.0208 2.18524 14.9949 2.04277 14.9117 1.93256C14.8284 1.8227 14.6989 1.75781 14.5606 1.75781H3.84875L3.53461 0.344237C3.48998 0.142936 3.31145 0 3.10546 0H0.439452C0.196609 0 0 0.196609 0 0.439452C0 0.68241 0.196609 0.878904 0.439452 0.878904H2.75275L4.3397 8.02C3.87278 8.22302 3.54491 8.68776 3.54491 9.22861C3.54491 9.95553 4.13634 10.547 4.86327 10.547H12.8028C13.0458 10.547 13.2423 10.3505 13.2423 10.1075C13.2423 9.86467 13.0458 9.66806 12.8028 9.66806H4.86327C4.62123 9.66806 4.42382 9.47111 4.42382 9.22861C4.42382 8.98611 4.62123 8.78916 4.86327 8.78916Z" fill="white"/>
<path d="M4.42346 11.8655C4.42346 12.5925 5.01489 13.1838 5.74193 13.1838C6.46886 13.1838 7.06029 12.5925 7.06029 11.8655C7.06029 11.1385 6.46886 10.5471 5.74193 10.5471C5.01489 10.5471 4.42346 11.1385 4.42346 11.8655Z" fill="white"/>
<path d="M10.6052 11.8655C10.6052 12.5925 11.1967 13.1838 11.9236 13.1838C12.6506 13.1838 13.2419 12.5925 13.2419 11.8655C13.2419 11.1385 12.6506 10.5471 11.9236 10.5471C11.1967 10.5471 10.6052 11.1385 10.6052 11.8655Z" fill="white"/>
</svg>
