<svg width="35" height="30" viewBox="0 0 35 30" fill="none" xmlns="http://www.w3.org/2000/svg">
<path d="M11.0666 20.0001H29.1334C29.5808 20.0001 29.9732 19.7043 30.0943 19.2746L34.0945 5.27444C34.1805 4.97262 34.1216 4.6484 33.9323 4.39762C33.7427 4.14763 33.4479 3.99997 33.1333 3.99997H8.758L8.04317 0.783328C7.9416 0.325258 7.53536 0 7.06661 0H0.999992C0.447392 0 0 0.447393 0 0.999993C0 1.55285 0.447392 1.99999 0.999992 1.99999H6.26401L9.87518 18.2499C8.81269 18.7118 8.0666 19.7694 8.0666 21.0001C8.0666 22.6543 9.41243 24.0001 11.0666 24.0001H29.1334C29.6862 24.0001 30.1334 23.5529 30.1334 23.0001C30.1334 22.4475 29.6862 22.0001 29.1334 22.0001H11.0666C10.5158 22.0001 10.0666 21.5519 10.0666 21.0001C10.0666 20.4483 10.5158 20.0001 11.0666 20.0001Z" fill="#1770D5"/>
<path d="M10.0667 27.0002C10.0667 28.6546 11.4125 30.0001 13.0669 30.0001C14.721 30.0001 16.0669 28.6546 16.0669 27.0002C16.0669 25.346 14.721 24.0002 13.0669 24.0002C11.4125 24.0002 10.0667 25.346 10.0667 27.0002Z" fill="#1770D5"/>
<path d="M27.1333 30.0001C25.4791 30.0001 24.1333 28.6546 24.1333 27.0002C24.1333 25.346 25.4791 24.0002 27.1333 24.0002C28.7877 24.0002 30.1333 25.346 30.1333 27.0002C30.1333 28.6546 28.7877 30.0001 27.1333 30.0001Z" fill="#1770D5"/>
</svg>
