<svg width="19" height="19" viewBox="0 0 19 19" fill="none" xmlns="http://www.w3.org/2000/svg">
<path d="M10.9954 13.1619C9.20702 12.4494 7.59235 11.3682 6.25872 9.99021C5.53667 9.15257 4.92786 8.22545 4.44763 7.23221L3.82072 5.85322C3.78113 5.62827 3.79859 5.39711 3.87154 5.18049C3.94449 4.96387 4.07064 4.76857 4.23866 4.61212C4.48181 4.27035 4.82086 4.00666 5.21386 3.85367C5.34607 3.79527 5.49462 3.78397 5.63429 3.82167C5.77396 3.85938 5.89614 3.94377 5.98009 4.06052L7.16427 5.71532C7.2759 5.89154 7.31639 6.10291 7.27766 6.30735C7.23894 6.51179 7.12384 6.69429 6.9553 6.81851L6.67666 7.02536L6.46769 7.23221C6.43513 7.30858 6.41834 7.39064 6.41834 7.47354C6.41834 7.55643 6.43513 7.63849 6.46769 7.71486C6.66249 8.32516 6.98708 8.88707 7.41963 9.3628C7.85218 9.83853 8.38266 10.217 8.97536 10.4729C9.17988 10.6124 9.42357 10.6848 9.67193 10.6797C10.0202 10.6108 10.1595 10.1971 10.4382 9.92126C10.5695 9.82602 10.7281 9.77468 10.8909 9.77468C11.0538 9.77468 11.2123 9.82602 11.3437 9.92126L12.1796 10.4729L13.0155 11.0934C13.0799 11.1292 13.1366 11.1773 13.182 11.235C13.2275 11.2927 13.261 11.3587 13.2804 11.4293C13.2999 11.4999 13.3049 11.5736 13.2953 11.6462C13.2857 11.7187 13.2616 11.7886 13.2245 11.8519C12.9891 12.4075 12.5721 12.8689 12.0403 13.1619L11.5527 13.2998L10.9954 13.1619Z" fill="white"/>
<path d="M13.909 8.5501H13.8408C13.6361 8.5501 13.5679 8.33653 13.5679 8.12297V7.48228C13.5503 6.95865 13.434 6.44378 13.2255 5.96711C13.0171 5.49044 12.7207 5.06133 12.3532 4.7043C11.9858 4.34727 11.5545 4.06934 11.084 3.88639C10.6135 3.70345 10.1131 3.61908 9.6114 3.63812H8.99746C8.79282 3.7093 8.58817 3.56693 8.58817 3.42455C8.56196 3.3784 8.54878 3.32546 8.55014 3.27183C8.55151 3.2182 8.56736 3.16607 8.59588 3.12143C8.62439 3.07679 8.66441 3.04147 8.71132 3.01953C8.75823 2.99759 8.81013 2.98993 8.86103 2.99742L9.54319 2.85505C10.1401 2.82643 10.7365 2.92211 11.2976 3.1365C11.8587 3.35089 12.3734 3.6797 12.8115 4.10377C13.2496 4.52783 13.6024 5.03867 13.8494 5.60649C14.0964 6.17432 14.2326 6.78777 14.25 7.41109V8.12297C14.1818 8.40772 14.0454 8.5501 13.909 8.5501Z" fill="white"/>
<path d="M12.9833 8.54729H12.92C12.8727 8.55456 12.8246 8.54713 12.781 8.52587C12.7374 8.5046 12.7003 8.47037 12.6738 8.42711C12.6473 8.38385 12.6326 8.33333 12.6314 8.28135C12.6301 8.22938 12.6423 8.17808 12.6667 8.13335C12.6338 7.39524 12.3371 6.70045 11.84 6.19762C11.3428 5.69478 10.6848 5.42382 10.0067 5.44272H9.88C9.69 5.51171 9.56333 5.37373 9.5 5.16675C9.50953 5.08097 9.53742 4.99882 9.58142 4.92693C9.62542 4.85503 9.68431 4.79539 9.75333 4.75281H9.94333C10.3676 4.73433 10.791 4.80715 11.1894 4.9671C11.5878 5.12705 11.9533 5.37099 12.2651 5.68497C12.5768 5.99895 12.8287 6.37681 13.0063 6.79692C13.1839 7.21704 13.2837 7.67118 13.3 8.13335V8.34032C13.264 8.39759 13.217 8.44572 13.1624 8.48143C13.1077 8.51715 13.0467 8.53961 12.9833 8.54729Z" fill="white"/>
<path d="M11.9429 7.60014C11.8476 7.60149 11.7547 7.57919 11.6803 7.53711C11.6059 7.49503 11.5547 7.43584 11.5357 7.36984C11.4968 7.07921 11.3104 6.80836 11.0111 6.6073C10.7118 6.40623 10.3196 6.28854 9.90714 6.27593C9.79916 6.27593 9.6956 6.24561 9.61925 6.19162C9.54289 6.13763 9.5 6.06441 9.5 5.98807C9.5 5.87292 9.66286 5.75777 9.90714 5.7002C10.517 5.72388 11.0957 5.89827 11.5422 6.19292C11.9887 6.48756 12.2746 6.88374 12.35 7.31227C12.35 7.38861 12.3071 7.46183 12.2307 7.51582C12.1544 7.56981 12.0508 7.60014 11.9429 7.60014Z" fill="white"/>
<path d="M12.2536 0H6.74638C4.95713 0 3.24116 0.685774 1.97597 1.90646C0.710777 3.12714 3.65781e-07 4.78275 3.65781e-07 6.50906V10.1621C-0.000465853 11.5285 0.444756 12.8604 1.27258 13.969C2.1004 15.0777 3.26883 15.9068 4.61232 16.3391V18.1988C4.61144 18.361 4.6619 18.5197 4.75696 18.6535C4.85203 18.7874 4.98716 18.89 5.14431 18.9478C5.30146 19.0055 5.47314 19.0157 5.6364 18.9768C5.79967 18.9379 5.94674 18.8518 6.05797 18.7301L8.12319 16.6712H12.2536C14.0429 16.6712 15.7588 15.9854 17.024 14.7647C18.2892 13.544 19 11.8884 19 10.1621V6.50906C19 4.78275 18.2892 3.12714 17.024 1.90646C15.7588 0.685774 14.0429 0 12.2536 0ZM17.3478 9.96284C17.3479 10.6314 17.2103 11.2932 16.9431 11.91C16.6759 12.5268 16.2843 13.0863 15.7912 13.5559C15.298 14.0255 14.7131 14.3959 14.0704 14.6457C13.4277 14.8954 12.7399 15.0195 12.0471 15.0107H8.88044C8.86218 15.0107 8.84467 15.0177 8.83176 15.0301C8.81885 15.0426 8.81159 15.0595 8.81159 15.0771L7.84783 16.007L7.2971 16.6047H7.15942L5.64493 18.1324C5.61626 18.1573 5.58092 18.174 5.54292 18.1805C5.50492 18.1871 5.46579 18.1832 5.42995 18.1694C5.39411 18.1555 5.36301 18.1323 5.34017 18.1023C5.31733 18.0723 5.30366 18.0367 5.30072 17.9995V14.6786C4.15486 14.3363 3.17651 13.6048 2.5471 12.6196C2.50435 12.5887 2.46966 12.5486 2.44576 12.5024C2.42186 12.4563 2.40942 12.4055 2.40942 12.3539L2.27174 12.1547C1.9113 11.4526 1.72288 10.6799 1.72101 9.89642V6.70831C1.73219 5.92588 1.92013 5.15522 2.27174 4.45007C2.33902 4.30291 2.43219 4.16808 2.5471 4.05156C3.00234 3.31757 3.64823 2.71092 4.42092 2.29157C5.19362 1.87222 6.06637 1.65468 6.9529 1.66047H12.0471C12.7399 1.65168 13.4277 1.77575 14.0704 2.02549C14.7131 2.27522 15.298 2.64565 15.7912 3.11526C16.2843 3.58488 16.6759 4.14432 16.9431 4.76112C17.2103 5.37792 17.3479 6.0398 17.3478 6.70831V9.96284Z" fill="white"/>
</svg>
